<?xml version="1.0" encoding="UTF-8" standalone="no"?>
<!-- Created with Inkscape (http://www.inkscape.org/) -->

<svg
   inkscape:version="1.2.2 (732a01da63, 2022-12-09)"
   sodipodi:docname="drawing.svg"
   viewBox="0 0 1400 1000"
   height="264.58334mm"
   width="370.41666mm"
   id="svg1864"
   version="1.1"
   xmlns:inkscape="http://www.inkscape.org/namespaces/inkscape"
   xmlns:sodipodi="http://sodipodi.sourceforge.net/DTD/sodipodi-0.dtd"
   xmlns="http://www.w3.org/2000/svg"
   xmlns:svg="http://www.w3.org/2000/svg">
  <defs
     id="defs1868" />
  <sodipodi:namedview
     id="namedview1866"
     pagecolor="#ffffff"
     bordercolor="#000000"
     borderopacity="0.25"
     inkscape:showpageshadow="2"
     inkscape:pageopacity="0.0"
     inkscape:pagecheckerboard="0"
     inkscape:deskcolor="#d1d1d1"
     showgrid="false"
     inkscape:zoom="0.814"
     inkscape:cx="544.22604"
     inkscape:cy="506.75676"
     inkscape:window-width="1920"
     inkscape:window-height="1001"
     inkscape:window-x="-9"
     inkscape:window-y="-9"
     inkscape:window-maximized="1"
     inkscape:current-layer="g1870"
     inkscape:document-units="mm" />
  <g
     inkscape:groupmode="layer"
     inkscape:label="Image"
     id="g1870"
     style="display:inline">
    <path
       style="fill:#000000"
       d="m 248.287,691.837 c -7.918,-1.721 -14.385,-5.169 -20.062,-10.699 -11.453,-11.156 -12.293,-26.05 -2.271,-40.268 9.535,-13.528 37.149,-28.824 66.083,-36.605 2.338,-0.629 4.25,-1.712 4.25,-2.407 0,-3.346 -8.974,-19.161 -16.621,-29.291 -9.956,-13.189 -35.412,-40.156 -64.251,-68.064 l -20.372,-19.714 -2.968,3.455 c -10.947,12.741 -14.975,16.874 -21.479,22.043 -18.181,14.448 -36.764,20.819 -57.245,19.625 -32.9231,-1.919 -64.3961,-26.834 -75.4287,-59.714 -6.8886,-20.529 -4.5486,-41.683 6.4791,-58.576 6.3189,-9.68 11.1234,-12.923 19.1437,-12.923 4.7493,0 6.1896,0.391 7.3664,2 4.6608,6.372 2.0768,11.809 -9.124,19.198 -10.524,6.942 -11.9823,8.758 -13.502,16.813 -4.9743,26.362 12.6781,57.132 40.4245,70.464 12.512,6.012 18.368,7.401 31.077,7.371 17.289,-0.041 32.209,-6.643 47.482,-21.01 7.816,-7.353 17.018,-18.202 17.018,-20.064 0,-0.484 -1.625,-2.43 -3.612,-4.326 -8.481,-8.091 -37.972,-40.798 -47.441,-52.615 -12.569,-15.685 -24.226,-33.275 -31.344,-47.297 -16.8475,-33.19 -16.6886,-58.649 0.484,-77.438 17.52,-19.17 45.265,-13.658 74.776,14.857 33.715,32.577 54.056,83.247 47.789,119.047 -0.867,4.95 -2.501,11.681 -3.631,14.959 l -2.056,5.958 6.866,7.042 c 21.268,21.812 52.548,60.914 67.077,83.851 12.396,19.568 22.367,41.169 24.549,53.182 0.399,2.196 0.899,4.275 1.112,4.619 0.213,0.345 4.56,-0.633 9.659,-2.173 50.501,-15.247 90.41,-38.21 99.824,-57.438 3.462,-7.07 3.542,-19.543 0.155,-24.055 -2.732,-3.638 -2.172,-5.894 1.999,-8.051 5.68,-2.938 8.72,-2.216 13.484,3.199 8.969,10.193 13.273,22.735 11.362,33.106 -4.908,26.629 -35.604,46.309 -108.052,69.273 -29.326,9.296 -26.376,7.841 -27.173,13.407 -2.669,18.658 -15.784,44.08 -28.833,55.889 -7.602,6.879 -13.873,10.272 -23.579,12.754 -8.719,2.23 -11.568,2.32 -19.415,0.616 z m 20.328,-11.561 c 14.136,-6.068 26.698,-28.035 29.542,-51.659 0.615,-5.106 0.497,-6.418 -0.579,-6.418 -2.86,0 -30.309,10.483 -40.791,15.579 -18.784,9.132 -24.489,14.656 -24.496,23.721 -0.005,5.963 1.616,9.173 7.254,14.37 3.951,3.642 6.787,5.077 13.242,6.703 3.547,0.894 10.872,-0.169 15.828,-2.296 z M 209.941,428.125 c 3.849,-18.105 -0.507,-41.668 -12.097,-65.426 -9.949,-20.394 -23.003,-37.971 -38.77,-52.2 -10.38,-9.368 -18.248,-14.534 -26.416,-17.344 -10.638,-3.661 -16.671,-1.848 -21.423,6.437 -10.971,19.129 7.816,51.817 56.186,97.753 28.018,26.61 39.329,36.842 40.366,36.518 0.55,-0.172 1.52,-2.754 2.154,-5.738 z m 818.349,256.722 c -12.13,-3.631 -21.35,-10.706 -27.49,-21.089 -2.855,-4.828 -3.513,-6.957 -3.513,-11.365 0,-18.812 25.993,-34.444 69.503,-41.802 14.3,-2.417 46.6,-2.448 59.63,-0.056 l 9.64,1.768 10.86,-8.19 c 21.1,-15.903 30.14,-24.173 24.62,-22.527 -7.32,2.184 -12.41,2.8 -20.01,2.424 -11.63,-0.576 -19.72,-4.314 -27.47,-12.691 -6.45,-6.966 -8.26,-12.133 -8.11,-23.12 0.45,-32.98 44.48,-79.418 84.34,-88.953 16.01,-3.829 30.23,-1.984 41.29,5.359 17.12,11.362 22.68,28.343 14.16,43.188 -5.15,8.968 -15.25,12.85 -19.56,7.523 -3.24,-4.001 -2.41,-7.308 3.97,-15.805 3.23,-4.297 6.17,-8.765 6.53,-9.93 1.05,-3.377 -1.04,-7.244 -4.9,-9.087 -3.07,-1.463 -4.34,-1.534 -9.27,-0.517 -11.03,2.27 -30.67,13.509 -48.22,27.587 -11.14,8.938 -28.38,26.978 -34.5,36.104 -8.71,13.001 -9.31,19.159 -2.28,23.599 2.83,1.787 4.43,2.008 11.78,1.625 10.74,-0.56 20.21,-3.691 38,-12.571 17.07,-8.52 28.8,-16.345 51.85,-34.594 10.1,-7.99 19.01,-14.528 19.8,-14.528 2.88,0 7.14,3.004 12.56,8.86 7.88,8.51 11.54,16.937 9.02,20.753 -1.85,2.802 -59.88,49.993 -88.49,71.956 -9.36,7.188 -16.84,13.488 -16.63,14 1.45,3.479 56.69,-7.785 83.98,-17.126 7.38,-2.523 14.92,-5.097 16.77,-5.718 2.93,-0.985 3.55,-0.886 4.75,0.763 3.03,4.144 1.84,6.395 -5.04,9.48 -27.52,12.348 -67.38,21.917 -106.01,25.448 l -15.41,1.409 -12.37,7.916 c -53.78,34.412 -96.32,48.126 -123.78,39.907 z m 21.89,-23.275 c 9.31,-2.68 29.78,-12.323 42.61,-20.073 11.09,-6.702 25.06,-16.072 26.45,-17.741 1.5,-1.806 -0.02,-2.257 -10.45,-3.099 -23.26,-1.876 -66.41,7.882 -86.51,19.562 -8.11,4.713 -10.03,6.812 -10.66,11.65 -0.44,3.298 -0.09,4.228 2.53,6.713 7.35,6.992 18.82,7.944 36.03,2.988 z M 1040,553.245 c -8.79,-1.726 -16.83,-10.888 -18.77,-21.408 -3.75,-20.283 14.05,-53.304 55.67,-103.298 18.3,-21.985 25.32,-31.267 28.76,-38.04 2.09,-4.117 2.05,-5.004 -0.31,-6.267 -7.12,-3.811 -34.47,11.369 -75.86,42.111 -25.79,19.145 -26.11,19.461 -38.307,36.873 -6.566,9.376 -11.896,16.011 -13.117,16.331 -2.898,0.758 -10.318,-2.281 -17.535,-7.183 -6.982,-4.741 -11.494,-10.064 -11.494,-13.561 0,-2.749 8.757,-15.578 46,-67.391 3.988,-5.547 7.253,-10.387 7.253,-10.755 0,-0.368 -2.815,2.825 -6.253,7.095 -26.633,33.088 -49.408,54.658 -66.75,63.221 -6.474,3.197 -8.456,3.704 -14.5,3.714 -5.798,0.01 -7.772,-0.445 -11.5,-2.649 -9.681,-5.724 -13.948,-13.329 -14.732,-26.257 -0.876,-14.451 4.419,-35.926 14.706,-59.643 4.802,-11.073 4.181,-10.71 -3.531,2.061 -17.964,29.75 -34.54,52.115 -48.346,65.232 -10.192,9.683 -16.995,13.696 -24.539,14.474 -10.124,1.045 -22.411,-6.734 -27.166,-17.2 -5.033,-11.076 -5.495,-27.958 -1.324,-48.425 2.655,-13.03 10.806,-38.273 18.538,-57.407 3.517,-8.704 6.394,-16.184 6.394,-16.621 0,-0.437 -2.812,-1.109 -6.25,-1.493 -7.447,-0.832 -19.851,-4.819 -24.162,-7.766 -1.698,-1.161 -4.475,-3.406 -6.171,-4.987 l -3.083,-2.876 -2.614,9.971 c -3.748,14.303 -11.806,35.409 -19.698,51.598 -17.533,35.962 -39.584,59.244 -61.525,64.959 -10.78,2.808 -26.012,1.302 -35.566,-3.515 -13.828,-6.973 -25.723,-23.173 -31.533,-42.944 -2.522,-8.581 -2.191,-9.248 -5.457,11 -3.16,19.584 -7.351,34.758 -12.619,45.687 -3.601,7.467 -12.629,16.728 -17.197,17.64 -11.178,2.23 -21.344,-1.863 -29.37,-11.826 -8.889,-11.033 -16.657,-28.331 -23.288,-51.855 -1.837,-6.519 -3.493,-12.006 -3.679,-12.192 -0.186,-0.186 -0.399,10.548 -0.472,23.854 -0.219,39.629 -4.319,59.221 -14.605,69.782 -6.036,6.198 -18.031,7.693 -27.211,3.392 -8.461,-3.965 -22.463,-20.603 -31.825,-37.819 -4.466,-8.211 -16.168,-35.53 -20.727,-48.386 -2.384,-6.723 -4.474,-12.084 -4.644,-11.914 -0.17,0.17 0.679,6.345 1.886,13.723 3.011,18.399 3.284,57.869 0.49,70.914 -6.511,30.398 -19.955,47.838 -41.254,53.513 -7.768,2.07 -19.905,2.065 -27.148,-0.011 -32.953,-9.442 -64.247,-51.353 -70.937,-95.002 -4.952,-32.311 6.222,-58.267 30.181,-70.108 7.306,-3.611 8.493,-3.891 16.427,-3.88 10.153,0.014 14.312,1.792 20.895,8.934 9.648,10.467 12.322,26.417 7.539,44.974 -2.918,11.324 -10.496,23.55 -20.789,33.538 -2.526,2.452 -4.594,5.172 -4.594,6.043 0,3.354 12.196,25.911 18.54,34.291 13.978,18.462 27.039,23.908 39.473,16.458 12.93,-7.747 20.223,-26.885 21.626,-56.75 0.982,-20.885 -2.093,-49.593 -7.81,-72.927 -1.987,-8.109 -1.997,-8.477 -0.256,-9.75 0.996,-0.728 3.074,-1.323 4.619,-1.323 1.544,0 2.808,-0.192 2.808,-0.427 0,-0.235 -1.618,-6.422 -3.597,-13.75 -4.316,-15.983 -13.979,-54.835 -14.928,-60.021 -1.306,-7.131 -2.159,-7.452 -10.305,-3.876 -14.436,6.335 -34.929,8.82 -45.895,5.563 -11.369,-3.376 -21.796,-13.932 -27.153,-27.487 -4.116,-10.418 -4.092,-13.44 0.128,-16.013 3.715,-2.265 7.665,-2.559 9.91,-0.739 0.848,0.688 2.588,3.95 3.867,7.25 5.593,14.428 14.284,22.135 27.074,24.009 6.004,0.879 17.855,-0.961 26.507,-4.115 3.791,-1.382 7.68,-2.764 8.642,-3.07 2.127,-0.677 2.164,-2.74 0.211,-11.824 -0.827,-3.85 -3.753,-18.212 -6.502,-31.915 l -4.998,-24.914 2.27,-2.435 c 6.859,-7.356 28.766,-13.096 33.172,-8.691 1.624,1.624 1.996,2.88 5.614,18.955 4.949,21.991 9.203,39.042 9.931,39.808 0.596,0.626 9.907,-3.968 11.954,-5.899 0.22,-0.208 -1.724,-2.649 -4.32,-5.425 -6.549,-7.001 -9.947,-14.959 -13.054,-30.57 -0.802,-4.029 1.756,-7.238 6.65,-8.342 6.162,-1.389 7.971,0.261 10.353,9.448 3.149,12.146 7.529,19.5 13.996,23.497 3.155,1.949 3.768,2.037 5.272,0.754 0.936,-0.798 5.751,-3.704 10.701,-6.458 4.95,-2.753 12.365,-6.941 16.477,-9.305 4.111,-2.364 9.006,-4.938 10.876,-5.72 3.293,-1.376 3.382,-1.559 2.803,-5.781 -0.328,-2.398 -0.896,-12.645 -1.262,-22.769 l -0.664,-18.409 2.885,-2.015 c 4.754,-3.319 12.371,-5.452 21.547,-6.033 8.163,-0.517 8.799,-0.411 11.048,1.838 2.19,2.19 2.497,3.757 3.74,19.133 0.865,10.695 1.752,16.742 2.453,16.731 0.604,-0.01 4.247,-0.708 8.097,-1.552 9.339,-2.047 27.497,-2.001 31.522,0.08 3.595,1.859 4.019,5.897 1.02,9.709 -1.865,2.371 -2.235,2.445 -7.75,1.548 -3.185,-0.518 -8.717,-0.681 -12.292,-0.363 -6.187,0.551 -19.812,3.075 -20.543,3.805 -0.503,0.503 1.107,11.687 1.779,12.359 0.313,0.313 3.876,-0.787 7.917,-2.445 45.443,-18.644 75.345,-29.134 95.847,-33.624 20.802,-4.555 47.72,-3.423 54.25,2.281 2.396,2.093 2.195,5.593 -0.5,8.712 l -2.25,2.604 -6.5,-1.798 c -9.391,-2.599 -32.224,-2.303 -44.258,0.574 -15.084,3.606 -35.694,10.082 -50.242,15.789 -32.017,12.558 -52.045,20.632 -52.749,21.264 -0.681,0.611 0.842,21.734 3.213,44.574 0.514,4.95 1.393,13.5 1.952,19 2.392,23.516 5.037,44.413 9.746,77 7.026,48.627 14.614,75.5 21.318,75.5 7.911,0 15.91,-29.857 21.431,-80 2.171,-19.713 3.439,-33.192 4.188,-44.5 0.858,-12.954 1.36,-13.914 6.877,-13.158 l 4.275,0.586 2.174,-5.714 c 5.107,-13.424 16.797,-28.618 27.105,-35.233 14.908,-9.567 36.091,-11.362 49.329,-4.18 20.504,11.122 19.192,40.08 -2.794,61.699 -8.431,8.29 -18.896,14.161 -32.004,17.957 -4.916,1.423 -9.155,2.805 -9.42,3.07 -0.265,0.265 -0.688,7.636 -0.94,16.381 -1.14,39.528 8.532,58.664 28.724,56.833 25.13,-2.279 56.073,-45.904 73.584,-103.741 l 3.179,-10.5 3.667,0.221 3.667,0.222 -1.355,-2.722 c -4.504,-9.043 -4.841,-26.774 -0.709,-37.302 4.941,-12.587 14.717,-20.953 22.729,-19.45 4.853,0.911 9.816,5.983 11.342,11.591 2.307,8.485 -0.36,25.2 -6.535,40.956 -1.346,3.436 -2.226,6.608 -1.954,7.049 0.273,0.44 3.075,1.337 6.228,1.993 5.504,1.144 11.918,1.028 37.811,-0.685 10.088,-0.668 13.992,0.516 17.039,5.165 2.535,3.871 1.1,10.679 -6.305,29.911 -3.611,9.378 -9.204,23.955 -12.43,32.392 -16.467,43.074 -21.879,67.605 -15.766,71.461 3.094,1.951 7.32,-0.427 15.513,-8.732 13.357,-13.538 35.815,-45.54 59.876,-85.32 10.62,-17.557 11.554,-18.351 16.762,-14.254 l 2.538,1.996 5.076,-7.996 c 4.956,-7.807 5.171,-7.996 9.06,-7.996 8.713,0 25.56,8.968 28.024,14.918 1.207,2.912 0.924,3.617 -6.531,16.313 -14.614,24.886 -19.69,34.206 -28.996,53.239 -14.189,29.021 -18.991,44.835 -14.867,48.959 2.164,2.164 4.223,1.977 9.982,-0.902 13.192,-6.597 41.123,-34.956 73.749,-74.877 2.09,-2.558 4.64,-4.65 5.67,-4.65 1.03,0 3.16,1.286 4.73,2.857 l 2.86,2.856 7.21,-10.16 c 11.78,-16.598 11.8,-16.606 22,-11.508 7.59,3.791 17.23,13.738 17.23,17.776 0,2.395 -17.6,29.702 -29.74,46.153 -1.78,2.412 -3.03,4.587 -2.79,4.834 0.25,0.247 4.41,-2.479 9.24,-6.058 38.21,-28.296 66.43,-39.702 80.89,-32.7 5.52,2.674 11.97,9.736 13.32,14.595 3.46,12.463 -1.22,29.072 -13.9,49.355 -9.49,15.175 -17.76,26.286 -42.24,56.745 -21.62,26.906 -26.1,33.915 -25.59,40.065 l 0.31,3.69 4.58,-0.147 c 11.87,-0.382 43.22,-22.51 97.18,-68.596 7.57,-6.466 14.13,-11.757 14.57,-11.757 1.12,0 6.17,5.404 6.17,6.614 0,1.043 -7.05,7.575 -27.5,25.475 -47.15,41.274 -78.76,62.098 -99,65.235 -1.65,0.256 -4.71,0.13 -6.79,-0.278 z M 522.517,445.555 c 4.004,-6.877 4.983,-15.422 5.481,-47.856 0.336,-21.931 0.01,-38.528 -1.118,-56.734 -2.079,-33.59 -2.139,-31.591 0.984,-32.375 2.086,-0.523 2.466,-1.084 1.999,-2.945 -0.613,-2.444 -1.53,-10.487 -4.04,-35.446 -0.858,-8.525 -2.004,-19.627 -2.547,-24.67 -0.544,-5.044 -0.989,-11.367 -0.989,-14.05 0,-6.948 -0.829,-7.389 -9.317,-4.962 -5.902,1.688 -10.304,2.078 -24.683,2.186 -12.486,0.093 -18.216,0.514 -20,1.469 -2.315,1.239 -17.112,10.021 -17.808,10.568 -0.757,0.596 16.181,67.639 26.137,103.459 19.399,69.796 33.939,105.989 42.096,104.79 1.086,-0.159 2.798,-1.705 3.805,-3.434 z M 355.678,408.199 c 4.099,-6.945 5.447,-10.833 6.62,-19.09 2.046,-14.394 -4.29,-33.285 -12.826,-38.245 -8.837,-5.133 -13.131,7.196 -10.099,28.994 1.284,9.231 5.961,28.179 8.354,33.841 1.632,3.86 1.743,3.93 3.198,2 0.829,-1.1 2.968,-4.475 4.753,-7.5 z m 325.526,-98.588 c 11.585,-6.313 19.892,-16.316 24.133,-29.06 3.924,-11.794 2.428,-26.114 -2.906,-27.807 -6.494,-2.061 -14.741,8.392 -21.524,27.28 -2.719,7.572 -8.62,29.328 -8.62,31.783 0,2.137 1.763,1.703 8.917,-2.196 z M 511.787,213.604 c 3.85,-0.772 7.338,-1.404 7.75,-1.404 0.413,-10e-4 0.75,-2.251 0.75,-5.001 0,-3.552 -0.394,-5 -1.361,-5 -1.2,0 -4.602,1.778 -19.88,10.391 -2.058,1.16 -3.746,2.474 -3.75,2.92 -0.009,0.901 5.897,0.219 16.491,-1.906 z m 456.53,77.012 c -10.709,-4.646 -13.938,-16.071 -7.599,-26.889 5.962,-10.174 20.697,-14.981 30.569,-9.974 5.589,2.834 10.013,10.074 9.993,16.345 -0.02,4.057 -4.357,12.387 -8.1,15.547 -7.429,6.27 -17.311,8.246 -24.863,4.971 z"
       id="path2354" />
  </g>
</svg>
