<?xml version="1.0" encoding="UTF-8" standalone="no"?>
<!-- Created with Inkscape (http://www.inkscape.org/) -->

<svg
   width="98cm"
   height="48cm"
   viewBox="0 0 980 479.99999"
   version="1.1"
   id="svg8"
   inkscape:version="1.2.2 (732a01da63, 2022-12-09)"
   sodipodi:docname="pinguin.svg"
   xml:space="preserve"
   xmlns:inkscape="http://www.inkscape.org/namespaces/inkscape"
   xmlns:sodipodi="http://sodipodi.sourceforge.net/DTD/sodipodi-0.dtd"
   xmlns="http://www.w3.org/2000/svg"
   xmlns:svg="http://www.w3.org/2000/svg"
   xmlns:rdf="http://www.w3.org/1999/02/22-rdf-syntax-ns#"
   xmlns:cc="http://creativecommons.org/ns#"
   xmlns:dc="http://purl.org/dc/elements/1.1/"><defs
     id="defs2" /><sodipodi:namedview
     id="base"
     pagecolor="#ffffff"
     bordercolor="#666666"
     borderopacity="1.0"
     inkscape:pageopacity="0.0"
     inkscape:pageshadow="2"
     inkscape:zoom="0.26124924"
     inkscape:cx="1106.2233"
     inkscape:cy="1111.965"
     inkscape:document-units="cm"
     inkscape:current-layer="layer1"
     showgrid="false"
     units="cm"
     inkscape:window-width="1920"
     inkscape:window-height="1001"
     inkscape:window-x="-9"
     inkscape:window-y="-9"
     inkscape:window-maximized="1"
     inkscape:pagecheckerboard="0"
     showguides="false"
     inkscape:showpageshadow="2"
     inkscape:deskcolor="#d1d1d1" /><metadata
     id="metadata5"><rdf:RDF><cc:Work
         rdf:about=""><dc:format>image/svg+xml</dc:format><dc:type
           rdf:resource="http://purl.org/dc/dcmitype/StillImage" /></cc:Work></rdf:RDF></metadata><g
     inkscape:label="Livello 1"
     inkscape:groupmode="layer"
     id="layer1"><path
       id="path490-9"
       style="fill:none;fill-opacity:1;fill-rule:evenodd;stroke:#ff0000;stroke-width:0.249235;stroke-linecap:round;stroke-linejoin:round;stroke-opacity:1"
       d="m 294.40347,208.22341 c -0.68695,-0.87366 -0.30264,-4.14765 0.76675,-6.54241 1.12839,-2.52574 4.16886,-5.66595 6.6696,-6.88847 1.06437,-0.52052 3.09422,-1.16478 4.51087,-1.43171 2.18762,-0.41312 3.01509,-0.38314 5.4927,0.19835 6.3042,1.48018 10.49389,6.0546 11.27879,12.3144 0.24948,1.991 0.20727,2.14765 -0.69612,2.58206 -1.467,0.7053 -2.60016,-0.0967 -2.60016,-1.83718 0,-3.5274 -3.12375,-7.54948 -7.07498,-9.10967 -3.32499,-1.3127 -6.04794,-1.13961 -9.7917,0.6221 -2.97895,1.40181 -5.47298,5.04473 -5.47298,7.99443 0,2.18141 -1.96548,3.51869 -3.08304,2.09773 z m 63.58754,0 c -0.68695,-0.87366 -0.30268,-4.14765 0.76674,-6.54241 1.12848,-2.52574 4.16887,-5.66595 6.6696,-6.88847 1.06437,-0.52052 3.09432,-1.16478 4.51087,-1.43171 2.18771,-0.41312 3.01518,-0.38314 5.49279,0.19835 6.30411,1.48018 10.49381,6.0546 11.27868,12.3144 0.24928,1.991 0.20747,2.14765 -0.69611,2.58206 -1.46691,0.7053 -2.60006,-0.0967 -2.60006,-1.83718 0,-3.5274 -3.12374,-7.54948 -7.07508,-9.10967 -3.32497,-1.3127 -6.04794,-1.13961 -9.7917,0.6221 -2.97893,1.40181 -5.47297,5.04473 -5.47297,7.99443 0,2.18141 -1.96548,3.51869 -3.08304,2.09773 z m -15.68649,22.67076 c 1.24047,-1.13342 4.64515,-4.90994 4.64515,-5.15239 0,-0.0871 0.47692,-0.77981 1.05941,-1.53706 1.64181,-2.13401 4.17391,-6.25477 4.17391,-6.79271 0,-0.29506 -1.41793,-0.78077 -4.40715,-1.50987 -5.72693,-1.39687 -13.69734,-1.17957 -18.93681,0.51664 -1.32668,0.42958 -1.28833,1.01791 0.24028,3.68714 1.27935,2.23385 5.29918,7.53505 6.69234,8.82531 0.54021,0.5002 0.98256,0.98936 0.98394,1.08707 9.5e-4,0.0977 0.70254,0.65984 1.55826,1.25001 1.82798,1.25949 2.24585,1.2204 3.99065,-0.37442 z m -3.94829,3.2152 c -3.00187,-1.34357 -8.5152,-7.63046 -11.96354,-13.64219 -1.26266,-2.20125 -1.50094,-3.90318 -0.67412,-4.8191 0.71081,-0.78755 2.92364,-1.71441 4.98019,-2.08495 0.83278,-0.14995 2.15552,-0.39377 2.93867,-0.5418 2.25356,-0.42474 9.22858,-0.36958 11.79764,0.0967 5.42189,0.97765 8.60645,2.04354 9.24746,3.09511 0.17334,0.28444 0.25039,0.86687 0.17151,1.29461 -0.44023,2.38342 -6.72839,11.33083 -10.34714,14.72394 -1.38574,1.29906 -3.28545,2.32712 -4.30094,2.32712 -0.46866,0 -1.30071,-0.20124 -1.84927,-0.44698 z M 78.314297,206.73046 c -0.68696,-0.87365 -0.302678,-4.14765 0.766742,-6.5424 1.128386,-2.52575 4.168775,-5.66595 6.669605,-6.88848 1.064358,-0.52051 3.094224,-1.16477 4.510869,-1.4317 2.187615,-0.41312 3.015079,-0.38314 5.492697,0.19835 6.3042,1.48017 10.49388,6.05459 11.27878,12.31439 0.24948,1.99101 0.20727,2.14764 -0.69612,2.58205 -1.467,0.7053 -2.60015,-0.0967 -2.60015,-1.83718 0,-3.5274 -3.12376,-7.54947 -7.075069,-9.10965 -3.324894,-1.31271 -6.04786,-1.13963 -9.79162,0.6221 -2.97903,1.4018 -5.47307,5.04471 -5.47307,7.99441 0,2.18143 -1.965376,3.5187 -3.082943,2.09774 z m 63.587523,0 c -0.68695,-0.87365 -0.30264,-4.14765 0.76676,-6.5424 1.12838,-2.52575 4.16885,-5.66595 6.66959,-6.88848 1.06437,-0.52051 3.09422,-1.16477 4.51088,-1.4317 2.18761,-0.41312 3.01506,-0.38314 5.49269,0.19835 6.3042,1.48017 10.49388,6.05459 11.27879,12.31439 0.24948,1.99101 0.20727,2.14764 -0.69612,2.58205 -1.467,0.7053 -2.60016,-0.0967 -2.60016,-1.83718 0,-3.5274 -3.12376,-7.54947 -7.07498,-9.10965 -3.32499,-1.31271 -6.04794,-1.13963 -9.7917,0.6221 -2.97895,1.4018 -5.47298,5.04471 -5.47298,7.99441 0,2.18143 -1.96548,3.5187 -3.08304,2.09774 z m -15.68648,22.66962 c 1.24046,-1.13342 4.64505,-4.90995 4.64505,-5.15241 0,-0.087 0.47693,-0.7798 1.0595,-1.53706 1.64182,-2.13401 4.17391,-6.25477 4.17391,-6.7927 0,-0.29507 -1.41801,-0.78076 -4.40713,-1.50987 -5.72695,-1.39687 -13.69735,-1.17958 -18.93682,0.51664 -1.32667,0.42957 -1.28834,1.018 0.24032,3.68722 1.27934,2.23376 5.29916,7.53507 6.69224,8.82532 0.54021,0.50019 0.98265,0.98936 0.98402,1.08708 9.6e-4,0.0977 0.70255,0.65983 1.55817,1.25001 1.82809,1.25948 2.24594,1.2203 3.99066,-0.37442 z m -3.94839,3.21518 c -3.00178,-1.34356 -8.51511,-7.63045 -11.96345,-13.64218 -1.26265,-2.20126 -1.50093,-3.90318 -0.67411,-4.8191 0.7108,-0.78754 2.92354,-1.71441 4.98018,-2.08496 0.83278,-0.14995 2.15552,-0.39376 2.93869,-0.5418 2.25355,-0.42474 9.22856,-0.36959 11.79763,0.0967 5.42179,0.97775 8.60646,2.04355 9.24746,3.09521 0.17334,0.28444 0.25039,0.86689 0.1715,1.29452 -0.44023,2.38353 -6.72839,11.33093 -10.34723,14.72394 -1.38564,1.29915 -3.28536,2.32722 -4.30094,2.32722 -0.46867,0 -1.30062,-0.20124 -1.84918,-0.44698 z m 1.5744,30.67941 c 1.77187,-0.89686 3.4101,-2.76461 4.30773,-4.91081 0.73281,-1.75146 0.75298,-6.49781 0.0366,-8.63104 -1.06592,-3.17832 -2.77909,-4.55129 -5.87561,-4.70958 -2.42452,-0.12383 -4.07394,0.39571 -5.55992,1.75388 -1.28155,1.17067 -1.90119,2.2888 -2.32391,4.19274 -0.40171,1.80797 0.27974,5.68569 1.51231,8.60936 1.40665,3.33681 2.83201,4.38471 5.64715,4.15192 0.88964,-0.0774 1.90384,-0.2796 2.25447,-0.45666 z m 23.53832,7.98689 c 0.26871,-0.12577 1.05995,-0.44118 1.75745,-0.70144 2.41902,-0.90074 4.1143,-2.78203 5.18454,-5.75331 1.0197,-2.8308 1.1558,-3.9323 1.1426,-9.24715 -0.01,-4.5632 -0.10732,-5.74702 -0.64844,-8.02857 -1.06409,-4.48087 -2.34389,-6.95949 -4.50491,-8.72528 -1.66446,-1.3601 -2.91318,-1.76306 -5.5414,-1.78793 -1.93805,-0.0194 -2.55852,0.0967 -4.42191,0.80303 -3.29463,1.2531 -6.61099,3.548 -9.3865,6.49538 -0.15499,0.16545 -0.52004,0.55051 -0.81078,0.85624 -0.51911,0.5476 -0.51636,0.58533 0.1917,2.15868 0.39622,0.88041 0.79518,1.9166 0.8869,2.30205 0.12105,0.51375 0.33569,0.70047 0.80251,0.70047 1.13554,0 4.53839,-1.67202 5.88891,-2.89339 1.40335,-1.26926 1.99629,-1.43016 2.81165,-0.76239 0.90799,0.74304 0.62734,1.46885 -1.13921,2.94777 -1.83845,1.53938 -3.65965,2.49005 -5.94843,3.10479 -1.71591,0.4615 -1.96804,0.69853 -1.97428,1.86311 -0.006,1.01017 0.0183,1.02574 3.73339,2.7266 2.73296,1.2503 5.05577,2.62298 5.63542,3.33013 0.11739,0.14416 0.18158,0.60564 0.14033,1.02622 -0.0643,0.67628 -0.18895,0.77302 -1.0718,0.84075 -0.77867,0.058 -1.27494,-0.11416 -2.25448,-0.79044 -1.14746,-0.79142 -4.77024,-2.64098 -5.98567,-3.05546 -0.41364,-0.14123 -0.67503,0.17029 -1.47112,1.75098 -1.13031,2.24304 -1.21689,1.92289 1.35198,4.989 1.24496,1.48578 3.64618,3.37801 5.13069,4.04287 0.46501,0.20802 0.99916,0.50987 1.18718,0.66951 0.18803,0.15962 1.01218,0.43247 1.83175,0.60565 0.81903,0.17318 1.68006,0.41216 1.91266,0.52923 0.56771,0.28832 4.95395,0.28832 5.56946,10e-4 z m -45.15288,-0.0389 c 0.0918,-0.13155 0.36779,-0.23992 0.61634,-0.23992 0.62091,0 2.61437,-0.81463 2.61437,-1.0686 0,-0.1132 0.26688,-0.20608 0.59341,-0.20608 0.42097,0 0.54478,-0.11514 0.42555,-0.3957 -0.0926,-0.21769 -0.0641,-0.33569 0.0734,-0.26221 0.35676,0.1993 1.72251,-0.44021 1.725,-0.80786 9.5e-4,-0.17512 0.10728,-0.31829 0.2357,-0.31829 0.34485,0 2.66792,-2.03106 3.49833,-3.05864 1.23853,-1.53213 1.85284,-2.69515 1.62594,-3.07838 -0.42281,-0.71402 -1.35713,-3.45087 -1.73335,-5.07761 -0.21093,-0.91139 -0.38152,-2.91855 -0.37969,-4.46056 0.003,-2.63922 0.055,-2.90287 0.91625,-4.49672 0.50168,-0.93171 0.91257,-1.79868 0.91257,-1.92755 0,-0.39764 -3.80356,-3.99218 -5.41089,-5.1138 -4.36789,-3.04791 -9.853331,-4.33535 -13.088349,-3.07151 -4.165371,1.62713 -6.590808,4.6464 -8.023051,9.98736 -0.64659,2.41072 -0.04583,10.57339 1.114628,15.07235 0.513609,1.9976 1.877702,4.70996 2.370043,4.71364 0.116476,9.8e-4 0.210931,0.12093 0.210931,0.26704 0,0.26993 0.409963,0.78464 1.067575,1.33959 1.815427,1.53271 2.485965,1.96325 3.057995,1.96325 0.365953,0 0.664943,0.11321 0.664943,0.25059 0,0.32507 6.691785,0.31445 6.914475,-0.009 z m -7.055253,2.72012 c -5.752071,-1.26509 -9.159692,-5.89098 -10.694557,-14.51796 -0.614503,-3.45271 -0.603496,-11.66637 0.01832,-13.6362 1.524049,-4.8308 4.383939,-8.19952 8.529969,-10.04696 1.60833,-0.71691 2.196046,-0.83592 4.495924,-0.91429 5.469577,-0.18479 10.115557,1.88895 15.589627,6.95757 l 2.55485,2.36582 1.73004,-0.78368 c 1.53945,-0.69756 2.00885,-0.78464 4.26599,-0.79335 2.20936,-0.006 2.73965,0.0774 4.1142,0.6908 1.6498,0.73239 2.22642,0.85526 2.22642,0.4731 0,-0.12482 1.17304,-1.30524 2.60666,-2.6222 5.24148,-4.81436 10.12748,-6.87571 15.37042,-6.48397 6.09639,0.45569 9.97983,4.81813 11.59815,13.02976 1.18461,6.01029 1.09711,11.76031 -0.2513,16.51517 -1.39345,4.91391 -3.92481,7.78941 -8.1886,9.30218 -1.62072,0.5747 -6.59971,0.6937 -8.73945,0.20898 -1.95759,-0.44408 -5.44243,-1.93683 -6.55798,-2.80941 -2.13827,-1.67281 -2.74745,-2.22157 -4.10549,-3.6973 -0.82361,-0.89493 -1.61017,-1.89638 -1.74866,-2.22581 -0.2568,-0.61147 -1.20689,-0.82238 -1.53624,-0.34057 -0.30909,0.45181 -2.19679,1.1994 -3.88987,1.53957 -1.99611,0.40055 -3.93664,0.0388 -5.70411,-1.0478 l -1.14248,-0.70609 -0.97118,1.30583 c -2.3904,3.2148 -6.2909,6.24364 -9.56608,7.42854 -3.15614,1.14203 -7.055085,1.45695 -10.004026,0.80786 z M 380.00271,163.06115 c 1.50806,-0.54083 2.108,-0.86204 3.12578,-1.673 0.94925,-0.75658 2.15275,-2.11804 2.35341,-2.66197 0.0733,-0.20124 0.29626,-0.76529 0.49346,-1.2531 0.42922,-1.06193 0.47601,-2.55739 0.10552,-3.34502 -0.38785,-0.82431 -1.59952,-1.64785 -3.14457,-2.13681 -3.51363,-1.11194 -7.7058,-0.0774 -9.54975,2.35324 -0.38061,0.50213 -0.75391,1.07865 -0.83095,1.28193 -0.50444,1.34356 -0.86213,3.07151 -0.87223,4.22003 -0.0183,2.20608 0.99963,3.23299 3.64397,3.66603 1.16508,0.19062 3.51797,-0.0388 4.67596,-0.45085 z m -18.98388,0.0987 c 1.19699,-0.20219 1.5855,-0.29511 3.14476,-0.74982 1.43729,-0.41892 4.39743,-1.60323 4.82171,-1.9287 0.15132,-0.1161 0.32832,-0.80205 0.39347,-1.524 0.22471,-2.48899 1.39087,-5.46442 2.48303,-6.33643 0.10182,-0.0774 0.4971,-0.40635 0.87956,-0.72272 0.38156,-0.31639 1.11169,-0.7798 1.62164,-1.02883 0.50993,-0.24964 0.92712,-0.50891 0.92712,-0.57663 0,-0.33474 -1.73707,-2.99981 -2.71715,-4.16788 -1.38254,-1.64775 -4.35872,-3.63836 -6.33301,-4.2357 -2.14423,-0.64919 -2.5253,-0.71788 -3.94461,-0.71788 -3.07084,0 -6.00374,0.83882 -8.45439,2.41806 -0.90249,0.58147 -1.82938,1.22253 -2.06031,1.42484 -0.38061,0.3328 -1.78471,2.14309 -1.78471,2.30012 0,0.0388 -0.19811,0.34735 -0.44116,0.69176 -0.7163,1.01761 -1.9042,3.38479 -2.31555,4.61516 -0.13575,0.40634 -0.35401,1.05069 -0.4861,1.43198 -0.32099,0.93171 -0.30359,4.17872 0.0275,4.83642 0.53012,1.05903 1.49892,2.12008 2.44322,2.67552 1.57175,0.92395 4.28727,1.6731 6.57505,1.8128 1.26953,0.0774 4.19729,-0.0484 5.2213,-0.21769 z m 37.08057,11.01756 c 1.63751,-0.47311 3.79372,-1.72176 5.14564,-2.98066 2.03739,-1.89727 4.31351,-5.2956 5.22955,-7.808 0.19273,-0.52825 0.48888,-1.32595 0.6576,-1.77293 0.17959,-0.47311 0.30901,-1.6759 0.311,-2.88082 0.003,-2.01501 -0.0199,-2.09366 -0.72729,-3.04994 -1.64484,-2.21015 -4.72028,-3.19748 -9.48014,-3.04355 -3.21871,0.10444 -5.67028,0.57179 -9.51438,1.81395 l -1.85653,0.59986 -0.11906,1.61813 c -0.0733,0.9733 -0.0279,1.6997 0.11269,1.82306 0.18358,0.16157 0.74565,0.18769 2.67226,0.12288 1.95556,-0.0677 2.72911,-0.16255 3.89793,-0.48471 1.22991,-0.33958 1.54991,-0.37636 2.045,-0.2322 0.4806,0.13933 0.57414,0.25737 0.51453,0.64919 -0.0641,0.42376 -0.23216,0.52825 -1.45932,0.90557 -1.29592,0.39862 -5.0619,0.89591 -5.75792,0.76143 -0.15491,-0.0289 -0.86213,-0.0967 -1.57229,-0.13933 l -1.29099,-0.087 -0.40542,0.62597 c -0.22299,0.34445 -0.48975,0.72562 -0.59428,0.84753 -0.13858,0.16156 0.29786,0.54664 1.61254,1.42019 2.17533,1.44679 4.40558,3.51047 4.40558,4.07664 0,0.79142 -1.59248,0.87075 -2.2101,0.11023 -0.54204,-0.6666 -2.63801,-2.36805 -3.97113,-3.22263 l -1.2352,-0.79141 -1.63815,1.0388 c -1.31018,0.83108 -1.61513,1.1076 -1.52378,1.38274 0.66218,1.99305 0.89055,2.55168 1.29661,3.17078 1.58044,2.41032 3.77465,4.06281 6.72342,5.06339 2.01967,0.685 3.11761,0.86882 5.29007,0.88526 1.6622,0.009 2.12373,-0.0483 3.44231,-0.42472 z M 345.29254,318.0962 c 0.50995,-4.2655 5.49371,-7.62261 12.57603,-8.4715 1.7526,-0.20996 6.63749,-0.10547 7.74277,0.16545 0.37511,0.0967 1.14268,0.27283 1.70545,0.40152 2.10489,0.48181 5.13905,1.83611 6.34951,2.83457 0.3036,0.2496 0.70071,0.45472 0.88231,0.45472 0.84011,0 6.56781,-3.58041 10.0996,-6.31291 8.38845,-6.49007 14.81134,-14.6955 18.70837,-23.90036 1.37867,-3.2564 1.31942,-3.09415 2.25684,-6.18202 2.18274,-7.19005 2.76818,-16.88601 1.47194,-24.37976 -1.33006,-7.68985 -4.1704,-14.88358 -8.52576,-21.59336 l -1.63902,-2.52507 -0.12743,-3.39581 c -0.0733,-1.86767 -0.23574,-4.02266 -0.36675,-4.78882 -0.1322,-0.76626 -0.34564,-2.05922 -0.47597,-2.87337 -0.13022,-0.81463 -0.32932,-1.9112 -0.44301,-2.4379 -0.69611,-3.23415 -0.96677,-4.40821 -1.28502,-5.57259 -0.19631,-0.71885 -0.40083,-1.50204 -0.45491,-1.74139 -0.22021,-0.97737 -1.16627,-4.05683 -1.68577,-5.48552 -0.24411,-0.67048 -0.54204,-1.49314 -0.6631,-1.82848 -1.53394,-4.25708 -3.85382,-8.95273 -6.32127,-12.79494 -6.5907,-10.26272 -15.13498,-15.99795 -25.56458,-17.15982 -2.99838,-0.33379 -6.43187,0.22836 -9.35908,1.53252 -2.79166,1.2441 -6.22808,4.32142 -7.95849,7.12696 -1.03299,1.67484 -1.51423,1.61108 -3.39992,-0.44988 -3.21776,-3.51675 -7.68186,-6.16857 -12.20117,-7.24771 -6.56935,-1.56869 -13.37616,-0.72852 -19.42805,2.39765 -2.83366,1.46382 -7.06746,5.18965 -9.04798,7.96211 -1.50837,2.11167 -1.97392,2.8249 -2.84182,4.35345 -2.71232,4.77711 -4.99083,11.80182 -5.95898,18.37198 -0.64385,4.36999 -0.75483,6.16682 -0.81811,13.23468 -0.0917,10.34129 -0.01,9.81487 -2.00455,12.85165 -0.89332,1.36001 -1.79736,2.7862 -2.00932,3.16932 -0.21185,0.38314 -0.60349,1.08835 -0.86947,1.56726 -0.74381,1.33765 -2.44864,5.10277 -3.38973,7.48794 -0.70622,1.79025 -2.06041,6.82665 -2.38793,8.88123 -1.38427,8.68676 -0.99815,17.39327 1.0939,24.6612 0.8603,2.98791 1.08546,3.61882 2.3882,6.68414 3.16815,7.45486 7.72479,14.01739 13.78411,19.85206 3.48539,3.35635 9.59718,7.77868 13.70322,9.91549 l 1.65281,0.86011 0.96211,-0.70434 c 2.0461,-1.49924 4.55205,-2.5062 8.01094,-3.21906 1.54414,-0.31829 7.57511,-0.3154 9.09531,0.004 1.97868,0.41603 3.06405,0.70918 4.04734,1.09231 4.19885,1.63497 6.75278,4.12879 7.10754,6.94023 0.0917,0.71789 0.25223,1.34966 0.35954,1.40298 0.10732,0.058 1.29476,0.0967 2.63959,0.087 l 2.44533,-0.008 z m -222.21206,1.17715 c 0.55672,-0.0774 0.60441,-0.15772 0.74107,-1.28958 0.45858,-3.77565 4.63991,-6.84039 11.16973,-8.18618 1.54414,-0.31829 7.57521,-0.3154 9.09541,0.004 3.88215,0.81656 5.44215,1.43548 7.852,3.11292 0.58515,0.40732 1.16864,0.74013 1.2976,0.74013 0.30176,0 3.7434,-1.97621 6.08509,-3.4943 1.68299,-1.09095 6.13324,-4.48851 7.74038,-5.90928 6.19231,-5.47419 11.86733,-13.29805 15.03136,-20.72281 2.14294,-5.02866 3.49484,-10.00324 4.18528,-15.40032 0.321,-2.50843 0.32561,-10.71677 0.008,-12.90882 -0.86122,-5.93869 -2.13213,-10.64711 -4.13164,-15.31296 -0.36962,-0.86204 -0.76032,-1.72408 -0.86946,-1.91565 -0.10915,-0.19157 -0.68788,-1.28861 -1.28688,-2.43789 -0.5989,-1.14939 -1.89971,-3.32557 -2.89052,-4.83603 l -1.80148,-2.74654 -0.18804,-9.35637 c -0.10365,-5.14602 -0.29993,-10.14005 -0.43565,-11.09777 -0.44941,-3.164 -0.71814,-4.86176 -0.95202,-6.00786 -0.65027,-3.19168 -1.31814,-5.57946 -2.40974,-8.61991 -3.17769,-8.85085 -8.43578,-15.51448 -15.08309,-19.11494 -3.53841,-1.91651 -8.30507,-3.08843 -12.55997,-3.08785 -4.60737,6.7e-4 -9.19418,1.1459 -12.84623,3.20772 -2.01546,1.13789 -4.87288,3.41905 -6.22284,4.96782 -0.6301,0.72368 -1.2877,1.37693 -1.46104,1.45289 -0.53746,0.23509 -1.14462,-0.17223 -1.77498,-1.19158 -2.01464,-3.25871 -6.20387,-6.62425 -9.68788,-7.78312 -2.51688,-0.83688 -5.26277,-1.13304 -7.68765,-0.82817 -7.417734,0.93362 -12.828429,3.46141 -18.447697,8.6198 -2.500726,2.29559 -3.929847,3.9861 -6.624935,7.83645 -0.885053,1.2647 -3.303975,5.50949 -3.91939,6.87851 -0.193529,0.43053 -0.657608,1.4497 -1.030618,2.26384 -0.37328,0.81366 -0.902486,2.06783 -1.176442,2.7862 -0.274245,0.71789 -0.580567,1.50203 -0.681453,1.7414 -0.222877,0.52922 -1.211384,3.49537 -1.68336,5.05004 -0.881386,2.90355 -1.965384,7.48195 -2.741571,11.58036 -0.478765,2.52584 -0.819026,5.48647 -0.951466,8.26996 l -0.153151,3.21993 -1.300261,2.00437 c -4.324602,6.66634 -6.777918,12.50983 -8.390103,19.98441 -2.279422,10.56787 -1.058954,22.30912 3.389463,32.60783 4.070912,9.42497 10.082993,17.09624 18.61489,23.75205 3.661674,2.85653 9.261131,6.37426 10.14628,6.37426 0.194445,0 0.736482,-0.2806 1.205973,-0.62501 1.888712,-1.38265 4.713572,-2.50321 7.674718,-3.04423 1.798738,-0.32896 7.542633,-0.33669 9.095303,-0.009 3.90335,0.8156 6.00648,1.67619 8.10753,3.31812 2.0682,1.61641 3.13807,3.28998 3.14458,4.91953 0.006,1.36891 0.0275,1.3813 2.24804,1.34599 1.07914,-0.0194 2.22963,-0.0677 2.55669,-0.11024 z m 244.89787,11.19172 c 3.32067,-0.35896 6.07271,-1.26772 7.27749,-2.40452 0.3321,-0.31346 0.78877,-1.03426 1.01403,-1.6015 0.35879,-0.90365 0.37233,-1.17406 0.10991,-2.18354 -0.16486,-0.63372 -0.55578,-1.55245 -0.86762,-2.04181 -1.13472,-1.77768 -4.14411,-3.63837 -7.06178,-4.36661 -0.64843,-0.16156 -1.49791,-0.37441 -1.88715,-0.47213 -1.95613,-0.49246 -5.71254,-0.42958 -9.28067,0.15673 -1.48066,0.24282 -4.69238,1.56531 -5.98438,2.46412 -2.55915,1.78038 -3.77513,4.4646 -2.97848,6.5752 0.57964,1.53561 3.00389,2.98549 5.85938,3.50446 0.58423,0.10639 1.37995,0.25154 1.76911,0.32317 2.32243,0.42666 8.2992,0.44988 12.0304,0.0484 z m -38.44998,0.008 c 1.74912,-0.20029 4.27407,-0.77014 5.32651,-1.20221 2.17459,-0.89301 3.12971,-2.18307 3.11835,-4.21297 -0.01,-1.72901 -0.79976,-3.18741 -2.43736,-4.50137 -1.89807,-1.52246 -3.51851,-2.20802 -7.54081,-3.18994 -1.5256,-0.37248 -6.80259,-0.328 -8.492,0.0677 -0.71355,0.16934 -1.56275,0.36764 -1.88706,0.44215 -2.54659,0.58341 -6.06738,2.78736 -6.9939,4.3788 -0.69796,1.19804 -0.9034,1.86223 -0.90615,2.92658 -0.008,3.26123 3.3856,4.99644 10.73023,5.48705 2.54347,0.16934 6.63722,0.0774 9.08173,-0.20025 z m -183.05001,0.003 c 1.86542,-0.18773 3.15202,-0.43344 3.94802,-0.75272 0.22562,-0.087 0.54388,-0.1664 0.70805,-0.16933 0.56589,-0.009 2.53531,-1.30873 3.18484,-2.10208 0.58148,-0.71014 0.64844,-0.95685 0.62642,-2.29365 -0.0183,-1.21817 -0.14766,-1.70753 -0.68145,-2.61968 -1.26871,-2.16758 -4.3943,-4.02431 -8.37515,-4.97526 -2.5708,-0.61435 -7.38361,-0.62113 -9.90736,-0.0103 -2.37087,0.56986 -3.58721,1.02816 -5.13317,1.9348 -1.71601,1.00629 -2.49312,1.70696 -3.35268,3.02275 -0.6145,0.94138 -0.71355,1.29431 -0.71355,2.54607 0,1.63981 0.31733,2.31145 1.55422,3.29374 2.59813,2.06232 10.08767,2.94148 18.14246,2.12956 z m -38.44988,-10e-4 c 5.81875,-0.67338 8.60986,-2.40916 8.60986,-5.35355 0,-3.38517 -3.68002,-6.26793 -9.9014,-7.75583 -1.52927,-0.3657 -7.055817,-0.31734 -8.733671,0.0774 -0.713549,0.16735 -1.562847,0.36475 -1.887155,0.43924 -1.495239,0.34347 -4.701176,1.99943 -5.723081,2.95667 -0.228373,0.21381 -0.744737,0.83785 -1.147552,1.38603 -0.951924,1.29598 -1.229364,3.66169 -0.560382,4.78022 1.273023,2.12965 4.218759,3.18257 10.261931,3.66845 2.26887,0.1819 6.61869,0.087 9.08173,-0.19736 z M 96.532504,336.886 c -6.157534,-0.76046 -9.588367,-2.65782 -10.347682,-5.7213 -0.287068,-1.15674 -0.319163,-1.17947 -1.98116,-1.3901 -6.282281,-0.79624 -14.276995,-3.23144 -19.737773,-6.0128 -6.589434,-3.35625 -12.891251,-8.41809 -17.501551,-14.05849 -0.860297,-1.05265 -1.564392,-1.96654 -1.564392,-2.03088 0,-0.0677 -0.200857,-0.34057 -0.44575,-0.61435 -0.801593,-0.89398 -3.509423,-5.3434 -4.730445,-7.77307 -2.91849,-5.80682 -5.095557,-12.14179 -6.155065,-17.90924 -0.160517,-0.87558 -0.413638,-2.05505 -0.56221,-2.62152 l -0.269666,-1.02981 -0.935873,0.0484 c -3.850141,0.21286 -12.935185,0.23993 -14.381544,0.0484 -5.041815,-0.68305 -7.861808,-1.98772 -9.218846,-4.26462 -1.1231509,-1.88498 -1.0057587,-5.70282 0.2779014,-9.03305 0.874055,-2.2682 1.1183866,-2.80089 2.2727276,-4.96161 3.276654,-6.13392 9.138504,-13.71359 16.001898,-20.69127 1.975378,-2.00833 3.655621,-3.69351 3.733849,-3.74508 0.07343,-0.0484 0.777748,-0.68305 1.554958,-1.40433 3.587842,-3.32914 11.132406,-9.50991 12.613167,-10.33315 0.270542,-0.15094 0.808015,-0.77109 1.194142,-1.37819 0.690624,-1.0865 0.70255,-1.15316 0.70255,-4.05913 -2.79e-4,-2.75524 0.09358,-3.742 0.727307,-7.63598 0.812599,-4.99421 2.306839,-11.61054 3.404957,-15.0737 0.211847,-0.6695 0.476006,-1.512 0.585147,-1.87248 2.205316,-7.25081 5.850759,-14.70334 10.045577,-20.53696 6.110777,-8.49801 14.377148,-14.95343 24.276985,-18.95868 7.027205,-2.84299 12.742218,-4.19536 21.348037,-5.05139 1.1027,-0.10932 2.83109,-0.28539 3.84061,-0.38992 2.98591,-0.30961 12.47083,-0.43634 16.20991,-0.21674 4.8018,0.28155 10.29716,0.91235 13.20988,1.51675 0.45399,0.0967 1.35629,0.27089 2.005,0.39281 1.81626,0.34057 6.42425,1.56792 8.75449,2.33099 7.30711,2.39252 13.29957,5.6348 18.67671,10.10551 5.52837,4.59648 9.89287,10.19267 13.36644,17.13843 0.48884,0.97842 0.9797,1.94747 1.08968,2.15344 0.55212,1.03445 2.70846,6.78467 3.51667,9.3796 0.76857,2.4675 2.10342,8.18705 2.7058,11.59254 1.38079,7.80732 1.92384,13.31267 1.66511,16.88069 l -0.1651,2.27526 2.02739,2.43394 c 1.11518,1.33882 2.02748,2.49275 2.02748,2.56445 0,0.0677 0.2036,0.35698 0.45216,0.6337 0.24856,0.27767 1.11389,1.51182 1.92311,2.74402 0.80893,1.2323 1.66739,2.46422 1.90705,2.73762 0.23936,0.27283 0.43565,0.55922 0.43565,0.63566 0,0.26121 4.95744,6.04453 6.76003,7.88577 4.30983,4.40239 10.26413,9.17526 15.05796,12.0701 2.48531,1.50097 5.14893,2.97341 5.37851,2.97341 0.13208,0 0.1715,-0.37248 0.0945,-0.88913 -0.93496,-6.27015 -0.96541,-6.66373 -0.97485,-12.59265 -0.01,-7.10607 0.32744,-10.04948 1.88559,-16.38455 0.86213,-3.50583 2.96371,-9.55645 4.35707,-12.54582 0.24027,-0.51471 0.82086,-1.82094 1.29035,-2.9024 0.46959,-1.08128 0.9455,-2.13468 1.0574,-2.34057 0.11189,-0.20607 0.48701,-1.00648 0.83278,-1.77885 0.34577,-0.77205 0.92917,-2.03647 1.29595,-2.80892 0.36686,-0.77206 0.93615,-1.9942 1.26513,-2.71509 0.7218,-1.58079 3.50061,-8.27596 3.92517,-9.45621 0.16693,-0.46344 0.43474,-1.17967 0.59707,-1.59153 0.79885,-2.03755 2.89915,-9.3112 3.43386,-11.89044 1.63439,-7.88365 2.12653,-12.7372 2.12626,-20.97223 -1.8e-4,-9.75101 -0.82362,-16.6484 -3.11772,-26.12145 -0.76766,-3.1703 -0.89789,-3.68761 -1.12755,-4.49402 -0.11739,-0.41215 -0.32653,-1.17038 -0.46409,-1.68518 -0.26138,-0.97815 -1.5234,-4.92873 -2.38847,-7.47682 -0.48518,-1.42822 -0.84837,-2.16661 -1.0672,-2.16661 -0.055,0 -0.55764,0.16156 -1.11215,0.35991 -2.04244,0.72949 -3.24758,1.13768 -3.35819,1.13768 -0.0643,0 -0.69338,0.21091 -1.4028,0.46827 -2.72048,0.98771 -3.07139,0.59404 -2.25292,-2.52798 0.14857,-0.56599 0.29902,-1.70395 0.33386,-2.52788 0.0366,-0.82431 0.18529,-1.84607 0.33294,-2.27159 0.19536,-0.5592 0.20177,-1.15577 0.0275,-2.15325 -0.35771,-2.02798 -0.77316,-2.86796 -1.44646,-2.92426 -0.82727,-0.0677 -4.89874,-0.60855 -5.9797,-0.79238 -0.51912,-0.087 -1.58045,-0.25832 -2.35885,-0.37731 -0.77867,-0.11899 -1.78681,-0.29122 -2.24099,-0.38314 -0.454,-0.0871 -2.15249,-0.43053 -3.77421,-0.75174 -1.62173,-0.32217 -3.32013,-0.66757 -3.77421,-0.7682 -0.454,-0.10056 -1.19717,-0.25059 -1.65127,-0.33379 -0.45398,-0.087 -0.98484,-0.19446 -1.17937,-0.24765 -0.19444,-0.0484 -1.30924,-0.32991 -2.47688,-0.61533 -3.33719,-0.81657 -10.43896,-2.701842 -11.55853,-3.068136 -0.25956,-0.08705 -0.94954,-0.300891 -1.53331,-0.479872 -0.58423,-0.179005 -1.32686,-0.411187 -1.65126,-0.515677 -0.32466,-0.104446 -0.8016,-0.254435 -1.06143,-0.33379 -0.25956,-0.07737 -0.97485,-0.320235 -1.58972,-0.536951 -0.61449,-0.215749 -1.1692,-0.392812 -1.23201,-0.392812 -0.15411,0 -2.28099,-0.765296 -5.55232,-1.997111 -3.42679,-1.290645 -5.68695,-2.21634 -8.61004,-3.526329 -0.64843,-0.290229 -1.38629,-0.620166 -1.63915,-0.732393 -0.25314,-0.112175 -0.67136,-0.351192 -0.92908,-0.532131 -0.25772,-0.179956 -0.55672,-0.327964 -0.66311,-0.327964 -0.10637,0 -0.72272,-0.295104 -1.3684,-0.654996 -0.64569,-0.360863 -1.22763,-0.654992 -1.29228,-0.654992 -0.0642,0 -0.30451,-0.120936 -0.53288,-0.269934 -0.22837,-0.148008 -1.33547,-0.808827 -2.45973,-1.468374 -2.95868,-1.734712 -4.02845,-2.449982 -6.64255,-4.4411 -2.48367,-1.891833 -3.51364,-2.861368 -5.27119,-4.962089 -1.7615,-2.105469 -1.82938,-2.197378 -2.41682,-3.276915 -1.32713,-2.438484 -1.44627,-2.72021 -2.41644,-5.71113 -0.41639,-1.282424 -0.42007,-7.675936 -0.006,-9.175354 0.37786,-1.368435 1.48369,-4.575298 1.71068,-4.962105 0.0917,-0.154786 0.27242,-0.49149 0.40356,-0.748843 1.07968,-2.120167 3.8032,-5.986863 4.33037,-6.148054 0.1119,-0.03885 0.20452,-0.146066 0.20452,-0.247657 0,-0.101592 0.133,-0.294114 0.29531,-0.426663 0.16235,-0.132549 0.61359,-0.567923 1.00247,-0.967505 1.39334,-1.428985 4.39805,-3.664586 6.02207,-4.480572 2.97885,-1.496722 6.53991,-2.608858 9.66459,-3.018203 1.39088,-0.182849 8.34323,-0.186734 9.55352,-0.0044 2.38334,0.356028 3.65902,0.58146 5.18958,0.918152 0.90798,0.200291 1.9696,0.431506 2.35884,0.513743 0.73648,0.155777 1.3209,0.310563 2.12305,0.562121 0.25955,0.07737 0.94945,0.296055 1.53322,0.47697 0.58423,0.180908 2.80202,1.005134 4.92937,1.831184 3.65984,1.421157 3.88501,1.483265 4.18703,1.155381 0.17517,-0.190579 0.31916,-0.509874 0.31916,-0.70917 0,-0.337675 2.34904,-6.134803 2.82138,-6.962684 0.11739,-0.206077 0.72089,-1.343471 1.34107,-2.527874 1.10014,-2.101316 3.31251,-5.70979 4.19042,-6.83469 1.00704,-1.290158 3.43293,-4.148533 3.83427,-4.517728 0.36504,-0.335733 2.05225,-1.925422 2.43792,-2.296936 0.277,-0.26605 2.56465,-1.829919 3.18053,-2.173381 0.36962,-0.206078 0.80619,-0.479884 0.96963,-0.608561 0.16418,-0.128664 0.3687,-0.234141 0.45583,-0.234141 0.0826,0 0.49068,-0.189627 0.89789,-0.420859 0.40723,-0.231247 0.95459,-0.513743 1.21589,-0.625969 0.26138,-0.113206 0.89056,-0.392812 1.39903,-0.623068 1.44123,-0.652091 4.29048,-1.524291 7.33225,-2.244012 3.13404,-0.741094 9.7574,-0.99061 13.05432,-0.490523 1.95539,0.296056 4.58058,0.86591 5.58084,1.210153 3.16558,1.090565 4.83601,1.855461 6.95218,3.183735 2.61143,1.639133 4.59681,3.313489 6.18661,5.21742 0.48976,0.587275 0.97522,1.151124 1.07831,1.25417 0.1027,0.102504 0.39622,0.511797 0.6521,0.908481 0.25498,0.396672 0.64568,0.986357 0.86764,1.310761 1.0729,1.569276 2.8432,5.547136 3.51236,7.892542 1.17489,4.117575 1.43692,6.128132 1.56165,11.984098 0.11465,5.395636 0.006,7.204075 -0.66952,11.04784 -0.12659,0.720792 -0.32653,1.858466 -0.44391,2.527875 -0.31184,1.776427 -0.89057,4.270055 -1.36951,5.89845 -0.46409,1.580688 -0.80068,2.639035 -0.98192,3.089599 -0.10365,0.257369 -0.32191,0.847534 -0.48518,1.310762 -0.79975,2.264627 -2.05508,5.161994 -2.61537,6.036319 -0.11465,0.179004 -0.20818,0.425695 -0.20818,0.548568 0,0.194464 -2.03216,3.653266 -2.96803,5.051587 -0.1825,0.271876 -0.57047,0.862037 -0.86396,1.310762 -0.29257,0.448927 -0.61175,0.843664 -0.70897,0.87849 -0.0972,0.03885 -0.177,0.136394 -0.177,0.226412 0,0.08704 -0.58332,0.93654 -1.29741,1.880814 -0.71356,0.944273 -1.29742,1.743813 -1.29742,1.777287 0,0.02894 -0.47785,0.602762 -1.06143,1.26607 -0.58424,0.662729 -1.06152,1.262486 -1.06152,1.332241 0,0.132549 -1.08528,1.328282 -1.59229,1.753683 -0.16235,0.136434 -0.29531,0.312505 -0.29531,0.392812 0,0.07737 -0.2238,0.347347 -0.49711,0.595 -0.27329,0.247697 -0.8236,0.829149 -1.22229,1.292584 -1.54505,1.794502 -6.53845,6.5603 -8.99974,8.589522 -1.04566,0.86204 -2.03399,1.67783 -2.19614,1.81232 -0.45125,0.37441 -0.36138,0.77303 0.45858,2.0242 0.77958,1.18972 2.28685,2.97515 2.60409,3.08456 0.099,0.0388 0.18067,0.15189 0.18067,0.26026 0,0.19252 2.27539,2.38914 3.06919,2.962 0.609,0.43924 0.95623,1.0536 0.79059,1.39697 -0.11647,0.23993 -2.81743,1.40413 -3.25913,1.40413 -0.35217,0 -3.19511,1.17406 -3.19511,1.31937 0,0.0996 0.37236,1.25436 0.82727,2.56697 1.39033,4.00978 1.62879,4.74508 2.32253,7.1615 0.31092,1.08137 0.69246,2.47167 0.8493,3.08961 0.15682,0.61823 0.3742,1.46062 0.48333,1.8725 0.8649,3.27332 2.0406,9.38065 2.57641,13.3885 0.76766,5.73909 0.84378,7.03505 0.84378,14.32476 0,7.27277 -0.10182,8.99152 -0.84011,14.231 -0.48152,3.41516 -1.78343,9.67013 -2.57209,12.35861 -0.45216,1.54122 -1.93796,6.19673 -2.12149,6.64747 -0.10457,0.25737 -0.30817,0.80496 -0.45216,1.21702 -0.42372,1.21614 -1.46168,3.90191 -1.66409,4.30681 -0.10274,0.20607 -0.29902,0.66951 -0.43658,1.0299 -0.36046,0.94912 -1.92897,4.52208 -2.1777,4.96219 -0.11648,0.20608 -0.52645,1.09056 -0.91258,1.96605 -0.38519,0.87559 -1.03575,2.30787 -1.44545,3.18327 -1.73324,3.70357 -2.4479,5.28804 -3.46273,7.67727 -0.59066,1.39039 -1.15673,2.78078 -1.25808,3.08971 -0.10182,0.30862 -0.50077,1.40432 -0.8869,2.43422 -0.38614,1.02989 -0.93119,2.673 -1.21074,3.65143 -0.27974,0.97843 -0.609,2.116 -0.73189,2.52787 -0.34027,1.14127 -1.15113,5.21365 -1.43554,7.2092 -0.40356,2.83042 -0.54754,13.01845 -0.2238,15.82273 0.33661,2.91565 1.12884,7.72798 1.31044,7.96124 0.0733,0.0967 0.43381,0.33863 0.80527,0.54858 l 0.67595,0.3812 3.03269,-1.6161 c 9.83618,-5.24171 16.60575,-10.37563 23.39751,-17.74409 2.0327,-2.20531 5.06127,-6.03892 6.56495,-8.31012 1.9509,-2.9465 4.1907,-5.92901 5.86598,-7.81079 l 1.00017,-1.12355 0.12014,-5.43036 c 0.0641,-2.98658 0.24119,-6.14642 0.38889,-7.02182 0.14765,-0.87557 0.37694,-2.30796 0.50901,-3.18334 0.47877,-3.17958 1.6464,-8.97247 2.35867,-11.70324 0.10732,-0.41214 0.30085,-1.17018 0.43015,-1.68528 0.97732,-3.89717 3.6548,-10.88104 5.45583,-14.231 0.11098,-0.20608 0.42831,-0.79625 0.70529,-1.31066 4.99073,-9.27511 12.66233,-16.74737 22.28189,-21.70308 5.55772,-2.86321 13.91894,-5.46743 20.17186,-6.28303 0.97302,-0.12676 2.29997,-0.30283 2.94868,-0.39087 3.44678,-0.46729 12.3958,-1.11533 15.39996,-1.11533 1.41784,0 2.18881,-0.0774 2.33675,-0.23414 0.12105,-0.12866 0.52277,-0.86591 0.8924,-1.63845 1.26356,-2.64291 2.36489,-4.28746 3.69671,-5.51986 1.04693,-0.96875 1.3541,-1.20608 2.68444,-2.07345 2.64509,-1.72476 5.38767,-2.53232 8.61847,-2.53803 2.00885,-0.003 2.91831,0.15867 4.82143,0.86107 4.06045,1.49817 7.8442,5.33788 10.02174,10.17014 l 0.73373,1.62887 2.5244,-3.8e-4 c 2.33868,-4.8e-4 2.63893,0.0483 4.07972,0.58437 1.37123,0.51566 2.64554,1.3693 3.61398,2.42068 0.28432,0.30862 0.4714,0.26605 2.75735,-0.62114 4.98119,-1.93258 8.92536,-2.62733 12.90544,-2.27294 1.91128,0.17028 2.44536,0.29605 4.52301,1.06917 3.96771,1.47621 6.23634,5.67022 5.45334,10.08142 -0.98971,5.57568 -3.27271,10.77946 -6.38483,14.55309 l -1.21477,1.47301 0.51636,0.86784 c 0.28432,0.47698 0.72183,1.24672 0.97337,1.70996 0.62734,1.15606 0.9911,1.81473 1.57579,2.85392 0.27437,0.48859 0.49896,1.00968 0.49896,1.15926 0,0.14899 0.0936,0.31734 0.20707,0.37346 0.11468,0.058 0.26122,0.29317 0.32653,0.52632 0.0641,0.23315 0.44484,1.14029 0.8438,2.01569 1.35952,2.98491 3.66399,9.7036 4.52782,13.2012 0.15212,0.61823 0.37233,1.50281 0.48888,1.96614 0.41179,1.64407 0.64108,2.75988 1.34575,6.55373 1.04701,5.6378 1.20513,6.87 1.34463,10.48283 0.15052,3.89697 0.30821,4.2594 2.6298,6.03718 2.51779,1.92822 8.41585,6.70958 9.77923,7.92766 1.40536,1.25581 1.89758,1.7114 3.62903,3.35973 0.6484,0.61727 1.2399,1.16506 1.31373,1.21663 0.0733,0.0483 1.35877,1.3575 2.85511,2.90239 3.61673,3.73376 7.921,8.74162 9.97874,11.60958 0.29547,0.41215 0.93403,1.29664 1.41909,1.96614 1.61788,2.23337 3.79779,5.87407 4.87701,8.14536 2.12647,4.47496 2.43023,5.58952 2.42497,8.89448 -0.004,2.38934 -0.0641,2.81628 -0.51178,3.55778 -0.97593,1.6195 -2.978,2.88063 -5.73308,3.61137 -3.0744,0.8156 -4.80067,0.93848 -11.46405,0.81463 -3.35669,-0.058 -6.4215,-0.13544 -6.81075,-0.1635 l -0.70805,-0.0484 -0.62367,2.99586 c -0.71539,3.43558 -1.10718,5.15133 -1.39067,6.08574 -0.10911,0.36087 -0.32175,1.07673 -0.47327,1.59163 -0.15052,0.51471 -0.40904,1.31551 -0.57505,1.77884 -0.16526,0.46344 -0.43564,1.22186 -0.59982,1.68528 -2.87586,8.09331 -8.00657,16.26808 -13.93003,22.19495 -1.45199,1.45261 -5.86326,5.07173 -7.53649,6.18299 -5.50602,3.65627 -12.71076,6.82502 -18.51097,8.14119 -3.1349,0.71112 -4.52675,0.98124 -6.36906,1.23501 -1.16767,0.16061 -2.24741,0.37347 -2.3994,0.47311 -0.15212,0.0996 -0.35043,0.53406 -0.44114,0.96556 -0.37431,1.7831 -2.1334,3.53204 -4.45734,4.43065 -3.20345,1.23888 -5.95824,1.59976 -12.04516,1.5778 -4.53519,-0.0194 -5.94872,-0.13837 -9.15144,-0.79239 -2.36921,-0.48374 -4.77566,-1.7709 -5.93101,-3.17328 l -0.72822,-0.88333 -3.23465,-0.0484 -3.23455,-0.0484 -0.32562,0.6134 c -0.6521,1.22872 -3.14696,2.72456 -5.6852,3.40868 -2.51467,0.67725 -4.55875,0.90557 -8.8619,0.98945 -11.16028,0.2167 -16.86008,-2.01849 -17.51173,-6.86768 -0.0734,-0.53889 -0.19261,-0.59113 -4.30808,-1.89542 -2.86062,-0.90654 -6.93795,-2.4289 -8.84584,-3.30332 -0.45399,-0.20802 -1.62172,-0.73723 -2.59474,-1.17541 -1.70363,-0.76722 -7.40012,-3.90656 -8.37653,-4.61612 -0.26047,-0.18963 -1.00383,-0.67628 -1.65126,-1.08166 -4.55471,-2.8518 -12.56144,-10.22015 -15.41555,-14.18641 -3.27775,-4.55506 -3.15394,-4.36795 -4.84234,-7.31273 -0.31,-0.54083 -0.79884,-1.4465 -1.08591,-2.01288 -0.28707,-0.56694 -0.61634,-1.19843 -0.73099,-1.4044 -0.40171,-0.71983 -2.17027,-5.06795 -2.62711,-6.46017 -0.3953,-1.20493 -1.06685,-3.66169 -2.08233,-7.61836 l -0.24947,-0.97089 -1.34291,-0.10639 c -4.74263,-0.37636 -8.43815,-1.01703 -13.13733,-2.27777 -1.68666,-0.4528 -3.15943,-0.82238 -3.27298,-0.82335 -0.11373,0 -0.14307,0.25059 -0.0643,0.55632 0.19811,0.78464 3.19852,6.51415 4.87857,9.31477 0.775,1.29199 1.40922,2.42018 1.40922,2.50697 0,0.23026 -1.38959,0.76432 -1.65236,0.63468 -0.26596,-0.12966 -1.32924,-1.87521 -3.6458,-5.98155 -0.53563,-0.94911 -2.61492,-5.15782 -3.29628,-6.67156 -0.47968,-1.0656 -0.80527,-1.49653 -1.30705,-1.73202 -0.88414,-0.41505 -1.25872,-0.39667 -2.43726,0.11804 -1.28742,0.56211 -5.23535,1.84995 -7.4779,2.43993 -3.77394,0.99294 -7.93895,1.6965 -11.20276,1.89222 -1.06253,0.0677 -1.74206,0.1974 -1.90595,0.37542 -0.14033,0.15189 -0.4329,1.14571 -0.65118,2.20918 -0.8759,4.26762 -2.82963,9.72102 -4.90333,13.68726 -0.38523,0.73724 -0.87223,1.67842 -1.0806,2.09028 -0.68879,1.35972 -3.51309,5.58295 -5.11803,7.65271 -4.82088,6.21656 -11.85441,12.24909 -19.48309,16.7104 -1.23247,0.72079 -2.57741,1.47447 -2.98866,1.67494 -0.41088,0.20025 -1.63832,0.80303 -2.72672,1.33853 -1.8114,0.89107 -7.39406,3.18481 -9.38155,3.85383 -0.45399,0.15288 -1.3286,0.45666 -1.94346,0.67435 -0.6145,0.21769 -1.25706,0.39667 -1.42711,0.39667 -0.16967,0 -0.40997,0.0677 -0.53286,0.15478 -0.12289,0.087 -0.67687,0.26704 -1.2301,0.40539 -1.26496,0.31539 -1.37419,0.43246 -1.54818,1.65935 -0.44665,3.15133 -4.59433,5.37029 -11.23916,6.01347 -2.90447,0.28155 -8.27134,0.23608 -10.85709,-0.087 -5.12225,-0.64919 -7.7125,-1.70251 -9.43979,-3.83922 l -0.75298,-0.93074 h -2.18991 c -3.36764,0 -4.33533,0.14995 -4.71485,0.72853 -0.94936,1.44911 -3.48137,2.83757 -6.49827,3.56319 -3.07067,0.7382 -10.78683,0.98318 -14.916263,0.47311 z" /></g></svg>
